<svg width="314" height="50" viewBox="0 0 314 50" fill="none" xmlns="http://www.w3.org/2000/svg">
<path d="M136.648 50H126.786V16.6176H136.648V50ZM131.711 12.0639C128.558 12.0639 126 9.31829 126 6.00348C126 4.41126 126.602 2.88425 127.673 1.75838C128.744 0.632508 130.197 0 131.711 0C133.226 0 134.679 0.632508 135.75 1.75838C136.821 2.88425 137.423 4.41126 137.423 6.00348C137.423 9.31829 134.864 12.0639 131.711 12.0639ZM173.557 50H163.717V33.7496C163.717 29.8768 163.642 24.9102 158.589 24.9102C153.462 24.9102 152.676 29.1178 152.676 33.4706V50H142.825V16.6176H152.283V21.1712H152.421C153.738 18.5484 156.954 15.7805 161.752 15.7805C171.733 15.7805 173.568 22.6891 173.568 31.6625V50H173.557Z" fill="white"/>
<path d="M288.011 12.1806C280.915 12.1806 275.192 17.9042 275.192 25C275.192 32.0958 280.915 37.8194 288.011 37.8194C295.107 37.8194 300.831 32.0958 300.831 25C300.831 17.9042 295.107 12.1806 288.011 12.1806ZM288.011 33.3343C283.426 33.3343 279.677 29.5967 279.677 25C279.677 20.4033 283.414 16.6657 288.011 16.6657C292.608 16.6657 296.345 20.4033 296.345 25C296.345 29.5967 292.597 33.3343 288.011 33.3343ZM304.345 11.6563C304.345 13.3186 303.006 14.6463 301.355 14.6463C299.693 14.6463 298.365 13.3075 298.365 11.6563C298.365 10.005 299.704 8.66618 301.355 8.66618C303.006 8.66618 304.345 10.005 304.345 11.6563ZM312.835 14.691C312.646 10.6856 311.731 7.13768 308.797 4.21455C305.873 1.29142 302.326 0.376548 298.32 0.175722C294.192 -0.0585741 281.819 -0.0585741 277.691 0.175722C273.697 0.365391 270.149 1.28026 267.215 4.20339C264.28 7.12652 263.377 10.6744 263.176 14.6798C262.941 18.8079 262.941 31.181 263.176 35.309C263.365 39.3144 264.28 42.8623 267.215 45.7855C270.149 48.7086 273.686 49.6235 277.691 49.8243C281.819 50.0586 294.192 50.0586 298.32 49.8243C302.326 49.6346 305.873 48.7197 308.797 45.7855C311.72 42.8623 312.635 39.3144 312.835 35.309C313.07 31.181 313.07 18.819 312.835 14.691ZM307.502 39.7384C306.632 41.9251 304.947 43.6098 302.75 44.4912C299.458 45.7966 291.648 45.4954 288.011 45.4954C284.374 45.4954 276.553 45.7855 273.273 44.4912C271.086 43.621 269.401 41.9363 268.52 39.7384C267.215 36.4471 267.516 28.6372 267.516 25C267.516 21.3628 267.226 13.5418 268.52 10.2616C269.39 8.07486 271.075 6.39016 273.273 5.50876C276.564 4.20339 284.374 4.50463 288.011 4.50463C291.648 4.50463 299.469 4.21455 302.75 5.50876C304.936 6.379 306.621 8.06371 307.502 10.2616C308.808 13.5529 308.507 21.3628 308.507 25C308.507 28.6372 308.808 36.4582 307.502 39.7384Z" fill="white"/>
<path d="M36.116 9.56844L27.9242 1.37668C27.0455 0.49795 25.8543 0 24.6143 0H4.68658C2.0992 0.00976372 0 2.10896 0 4.69635V45.3134C0 47.9008 2.0992 50 4.68658 50H32.8061C35.3935 50 37.4927 47.9008 37.4927 45.3134V12.8881C37.4927 11.6481 36.9947 10.4472 36.116 9.56844ZM32.4253 12.5073H24.9951V5.07713L32.4253 12.5073ZM4.68658 45.3134V4.69635H20.3085V14.8506C20.3085 16.1492 21.3533 17.1939 22.6518 17.1939H32.8061V45.3134H4.68658Z" fill="white"/>
</svg>
