<svg width="808" height="521" viewBox="0 0 808 521" fill="none" xmlns="http://www.w3.org/2000/svg">
<path d="M560.407 260.717C527.355 260.853 494.294 260.815 461.242 260.603C451.874 260.543 442.506 260.467 433.13 260.375C432.053 260.37 432.053 261.444 433.13 261.455C466.183 261.77 499.235 261.906 532.287 261.868C541.663 261.862 551.031 261.835 560.407 261.792C561.476 261.792 561.484 260.712 560.407 260.717Z" fill="#F8F8F8"/>
<path d="M426.978 260.847C427.163 260.722 427.356 260.63 427.575 260.538C427.558 260.549 427.668 260.549 427.651 260.565C427.642 260.576 427.617 260.56 427.626 260.554C427.609 260.565 427.701 260.315 427.727 260.348C427.735 260.348 427.541 260.408 427.516 260.413C427.356 260.457 427.154 260.5 426.978 260.511C426.935 260.511 426.826 260.489 426.792 260.511C426.784 260.516 426.818 260.565 426.826 260.587C426.877 260.733 426.792 260.549 426.86 260.614C426.877 260.636 426.818 260.63 426.885 260.592C426.767 260.663 426.498 260.739 426.329 260.674C427.255 261.032 428.097 260.104 427.171 259.746C426.153 259.349 425.101 260.022 425.193 260.695C425.303 261.547 426.818 261.705 427.844 261.477C428.408 261.357 428.998 261.178 429.208 260.793C429.385 260.446 429.216 260.066 428.829 259.805C427.895 259.181 426.582 259.556 425.791 260.082C425.05 260.587 426.228 261.347 426.978 260.847Z" fill="#F8F8F8"/>
<path d="M552.722 259.556C553.69 260.804 554.439 262.101 554.978 263.452C555.256 264.12 556.863 263.838 556.594 263.165C556.013 261.721 555.197 260.343 554.161 259.013C553.682 258.394 552.234 258.937 552.722 259.556Z" fill="#F8F8F8"/>
<path d="M548.506 259.132C549.322 260.527 550.139 261.922 550.955 263.317C551.334 263.957 552.95 263.68 552.563 263.029C551.755 261.634 550.938 260.239 550.122 258.85C549.743 258.204 548.127 258.481 548.506 259.132Z" fill="#F8F8F8"/>
<mask id="mask0_20_5406" style="mask-type:luminance" maskUnits="userSpaceOnUse" x="389" y="252" width="30" height="17">
<path d="M389.995 252.164H418.005V268.836H389.995V252.164Z" fill="white"/>
</mask>
<g mask="url(#mask0_20_5406)">
<path d="M403.781 253.331C406.685 256.506 411.289 259.208 415.893 261.352C415.834 261.07 415.775 260.782 415.724 260.506C411.423 262.66 407.535 265.037 404.471 267.962C404.951 267.962 405.439 267.962 405.919 267.962C402.451 264.972 398.016 262.617 392.73 261.075C392.73 261.385 392.73 261.694 392.73 262.003C397.704 259.653 402.216 256.837 405.22 253.331C405.742 252.723 404.303 252.18 403.781 252.783C400.919 256.126 396.627 258.834 391.888 261.075C391.442 261.287 391.257 261.819 391.888 262.003C396.888 263.469 401.189 265.667 404.471 268.505C404.858 268.836 405.54 268.863 405.919 268.505C408.89 265.656 412.72 263.366 416.903 261.265C417.366 261.032 417.122 260.598 416.734 260.419C412.383 258.389 407.973 255.789 405.22 252.783C404.673 252.186 403.226 252.729 403.781 253.331Z" fill="#F8F8F8"/>
</g>
<path d="M406.104 260.359C405.549 259.8 404.32 259.664 403.571 260.158C402.822 260.663 402.973 261.472 403.832 261.879C404.825 262.345 406.037 261.927 406.432 261.249C406.617 260.934 406.592 260.549 406.205 260.294C405.793 260.033 405.229 260.033 404.707 260.12C403.672 260.299 404.109 261.341 405.153 261.162C405.262 261.157 405.288 261.151 405.246 261.14C405.069 261.097 404.951 261.016 404.875 260.885C404.875 260.885 404.825 260.956 404.783 260.978C404.825 260.951 404.69 261.032 404.682 261.021C404.858 261.01 404.917 261.016 404.85 261.032C404.774 260.989 404.757 260.972 404.783 260.994C404.774 260.989 404.724 260.902 404.749 260.956C404.766 260.999 404.741 260.869 404.757 260.923C404.757 260.929 404.656 260.918 404.648 260.918C404.842 261.005 404.665 260.907 404.665 260.902C405.237 261.488 406.685 260.945 406.104 260.359Z" fill="#F8F8F8"/>
<path d="M416.566 257.911C417.265 258.438 417.972 258.953 418.713 259.453C419.428 259.941 420.497 260.424 421.027 260.999C421.027 260.815 421.027 260.636 421.027 260.457C420.118 261.743 418.266 262.98 416.987 264.131C416.356 264.695 417.812 265.232 418.426 264.679C419.352 263.848 420.27 263.029 421.187 262.199C421.642 261.786 422.652 261.2 422.567 260.652C422.492 260.125 421.296 259.615 420.783 259.29C419.731 258.6 418.721 257.884 417.745 257.151C417.046 256.625 415.868 257.39 416.566 257.911Z" fill="#F8F8F8"/>
<path d="M390.643 257.151C389.666 257.884 388.656 258.6 387.604 259.29C387.057 259.642 385.904 260.115 385.82 260.652C385.744 261.195 386.771 261.813 387.2 262.199C388.118 263.029 389.043 263.848 389.961 264.679C390.584 265.232 392.031 264.695 391.4 264.131C390.121 262.98 388.269 261.748 387.36 260.457C387.36 260.636 387.36 260.815 387.36 260.999C387.89 260.429 388.968 259.936 389.683 259.453C390.415 258.953 391.131 258.438 391.829 257.911C392.52 257.39 391.341 256.625 390.643 257.151Z" fill="#F8F8F8"/>
<path d="M247.585 261.276C280.637 261.412 313.689 261.379 346.742 261.162C356.118 261.102 365.486 261.026 374.862 260.94C375.931 260.929 375.939 259.849 374.862 259.86C341.809 260.174 308.757 260.315 275.705 260.272C266.329 260.267 256.961 260.239 247.585 260.201C246.508 260.196 246.508 261.271 247.585 261.276Z" fill="#F8F8F8"/>
<path d="M382.193 259.567C381.401 259.035 380.097 258.671 379.163 259.29C378.784 259.539 378.607 259.908 378.767 260.245C378.952 260.652 379.575 260.836 380.147 260.961C381.174 261.184 382.689 261.032 382.799 260.18C382.883 259.507 381.839 258.834 380.821 259.23C379.895 259.588 380.736 260.516 381.662 260.158C381.502 260.223 381.216 260.153 381.115 260.088C381.056 260.044 381.174 260.153 381.14 260.109C381.098 260.055 381.157 260.071 381.14 260.126C381.14 260.115 381.208 259.99 381.208 259.995C381.183 259.974 381.039 259.995 381.014 259.995C380.829 259.979 380.635 259.941 380.467 259.892C380.459 259.892 380.324 259.849 380.316 259.849C380.24 259.816 380.24 259.827 380.316 259.881C380.375 259.925 380.391 259.979 380.366 260.039C380.366 260.039 380.341 260.055 380.341 260.05C380.324 260.028 380.408 260.017 380.417 260.022C380.61 260.104 380.829 260.207 381.014 260.326C381.755 260.831 382.942 260.071 382.193 259.567Z" fill="#F8F8F8"/>
<path d="M253.821 258.492C252.786 259.822 251.97 261.206 251.397 262.649C251.128 263.317 252.736 263.604 253.005 262.931C253.552 261.58 254.293 260.288 255.269 259.04C255.749 258.421 254.31 257.873 253.821 258.492Z" fill="#F8F8F8"/>
<path d="M257.87 258.329C257.053 259.724 256.237 261.119 255.42 262.513C255.042 263.165 256.658 263.442 257.028 262.801C257.844 261.406 258.661 260.012 259.477 258.617C259.856 257.966 258.24 257.689 257.87 258.329Z" fill="#F8F8F8"/>
</svg>
